<?xml version="1.0" encoding="utf-8"?>
<!-- Generator: Adobe Illustrator 14.0.0, SVG Export Plug-In . SVG Version: 6.00 Build 43363)  -->
<!DOCTYPE svg PUBLIC "-//W3C//DTD SVG 1.1//EN" "http://www.w3.org/Graphics/SVG/1.1/DTD/svg11.dtd">
<svg version="1.1" id="Layer_1" xmlns="http://www.w3.org/2000/svg" xmlns:xlink="http://www.w3.org/1999/xlink" x="0px" y="0px"
	 width="504px" height="504px" viewBox="-15 -40 504 504" enable-background="new 0 0 504 504" xml:space="preserve" style="fill:#222222;">
<g id="QXdlhN_1_">
	<g>
		<g>
			<path fill-rule="evenodd" clip-rule="evenodd" d="M408,139c0.865,8.866-2.11,13.89-2,22c-12.986,5.65-13.854,27.793-19,44
				c-3.709,11.681-8.093,25.311-18,31c-31.345,18.001-82.645,10.605-102-13c-4.796-5.849-10.889-17.066-15-26
				c-6.342-13.78-7.012-34.316-25-27c-5.995,2.438-12.297,23.784-17,33c-5.28,10.346-12.995,23.529-20,29
				c-20.759,16.211-73.237,19.233-95,1c-19.356-16.217-12.336-58.23-33-73c-0.168-7.498-2.801-12.532-2-21
				c34.372-10.504,86.361-5.878,122,1c17.536,3.384,34.215,10.839,53,10c13.45-0.601,27.571-5.523,41-8
				C317.306,134.38,360.407,130.135,408,139z"/>
		</g>
	</g>
</g>
</svg>
