<?xml version="1.0" encoding="utf-8"?>
<!-- Generator: Adobe Illustrator 15.0.0, SVG Export Plug-In . SVG Version: 6.00 Build 0)  -->
<!DOCTYPE svg PUBLIC "-//W3C//DTD SVG 1.1//EN" "http://www.w3.org/Graphics/SVG/1.1/DTD/svg11.dtd">
<svg version="1.1" id="Layer_1" xmlns="http://www.w3.org/2000/svg" xmlns:xlink="http://www.w3.org/1999/xlink" x="0px" y="0px"
	 width="26px" height="26px" viewBox="0 0 26 26" enable-background="new 0 0 26 26" xml:space="preserve">
<path d="M21.452,8.23c-1.775-3.137-3.683-3.549-3.832-3.568h-1.691c0,0,0.26-0.593,0.09-0.451c-0.283,0.236-0.869,0.894-1.231,1.313
	c-0.463,0.383-0.963,0.594-1.495,0.621c-1.343,0.063-2.517-0.961-2.697-1.126C10.19,4.555,9.771,4.081,9.771,4.081
	c0.047,0.232,0.087,0.424,0.12,0.582l-1.248,0C5.739,4.897,4.84,7.626,4.784,7.733C3.659,9.682,3.71,13.551,3.71,18.063
	c0,0.291,0.237,0.527,0.527,0.527h1.125c0.29,0,0.527-0.236,0.527-0.527c0-3.223,0.485-6.108,0.955-7.47
	c0,0,1.85,5.062,1.065,10.097c0,0,0.101,0.148,0.176,0.199c0.062,0.043,2.135,1.031,4.679,1.031c1.466,0,3.559-0.332,5.082-0.984
	c0.112-0.047,0.266-0.248,0.266-0.248c-1.014-2.92,1.056-10.058,1.056-10.058c0.458,1.353,0.939,4.228,0.939,7.433
	c0,0.291,0.235,0.527,0.526,0.527h1.124c0.292,0,0.527-0.236,0.527-0.527C22.283,13.619,22.42,10.078,21.452,8.23z"/>
</svg>
